# xmcd
#
# Track frame offsets:
#	150
#	81005
#	95030
#	152702
#	171421
#	234077
#	276374
#	281679
#
# Disc length: 4228 seconds
#
# Revision: 0
# Processed by: cddbd v1.5.2PL0 Copyright (c) Steve Scherf et al.
# Submitted via: audiograbber 1.83.01
#
DISCID=67108208
DTITLE=Czeslaw Niemen - Requiem dla Van Gogha Marionetki
DYEAR=1973
DGENRE=PL
TTITLE0=Reqquiem dla Van Gogha
TTITLE1=Sariusz
TTITLE2=Inicjaly
TTITLE3=Marionetki
TTITLE4=Piosenka dla Zmarlej 
TTITLE5=Z pierwszych wazniejszych odkryc
TTITLE6=Ptaszek
TTITLE7=Com uczymr
EXTD=
EXTT0=
EXTT1=
EXTT2=
EXTT3=
EXTT4=
EXTT5=
EXTT6=
EXTT7=
PLAYORDER=
